<svg width="50" height="40" viewBox="0 0 50 40" fill="none" xmlns="http://www.w3.org/2000/svg">
<g clip-path="url(#clip0_6_17)">
<path d="M28.125 0H34.3125C34.7625 1.7875 36 4.0425 38.1719 6.28C40.2969 8.4725 43.1156 10 46.875 10V15C41.3969 15 37.2812 12.965 34.375 10.4275V27.5C34.375 29.9723 33.4586 32.389 31.7417 34.4446C30.0248 36.5002 27.5845 38.1024 24.7294 39.0485C21.8743 39.9946 18.7327 40.2421 15.7017 39.7598C12.6708 39.2775 9.88665 38.087 7.70146 36.3388C5.51626 34.5907 4.02812 32.3634 3.42523 29.9386C2.82234 27.5139 3.13176 25.0005 4.31438 22.7165C5.497 20.4324 7.4997 18.4801 10.0692 17.1066C12.6387 15.7331 15.6597 15 18.75 15V20C16.8958 20 15.0832 20.4399 13.5415 21.264C11.9998 22.0881 10.7982 23.2594 10.0886 24.6299C9.37906 26.0003 9.1934 27.5083 9.55514 28.9632C9.91687 30.418 10.8098 31.7544 12.1209 32.8033C13.432 33.8522 15.1025 34.5665 16.921 34.8559C18.7396 35.1453 20.6246 34.9968 22.3377 34.4291C24.0507 33.8614 25.5149 32.9002 26.545 31.6668C27.5752 30.4334 28.125 28.9834 28.125 27.5V0Z" fill="white"/>
</g>
<defs>
<clipPath id="clip0_6_17">
<rect width="50" height="40" fill="white"/>
</clipPath>
</defs>
</svg>
